#N canvas 1094 448 601 471 10;
#X obj 24 104 antescofo~ @outlets notenum certainty;
#X floatatom 24 144 5 0 0 1 Note_Number - -;
#X floatatom 67 177 5 0 0 1 Tempo - -;
#X symbolatom 111 229 10 0 0 1 Cue_Name - -;
#X floatatom 155 266 5 0 0 1 MIDI_Note_Number - -;
#X floatatom 199 298 5 0 0 1 Certainty - -;
#X msg 111 205 set \$1;
#X obj 111 307 symbol2list;
#X obj 111 329 unpack f;
#X obj 102 18 r reset;
#X obj 24 19 inlet~;
#X obj 111 394 outlet;
#X obj 102 40 symbol \$1;
#X msg 102 63 score score/autodrone_score_\$1.txt;
#X obj 340 16 r \$1;
#X obj 24 304 env~;
#X obj 24 333 outlet;
#X obj 340 38 print \$1;
#X obj 169 17 loadbang;
#X connect 0 0 1 0;
#X connect 0 1 2 0;
#X connect 0 2 6 0;
#X connect 0 2 7 0;
#X connect 0 3 4 0;
#X connect 0 4 5 0;
#X connect 6 0 3 0;
#X connect 7 0 8 0;
#X connect 8 0 11 0;
#X connect 9 0 12 0;
#X connect 10 0 0 0;
#X connect 10 0 15 0;
#X connect 12 0 13 0;
#X connect 13 0 0 0;
#X connect 14 0 0 0;
#X connect 14 0 17 0;
#X connect 15 0 16 0;
#X connect 18 0 12 0;
