#N canvas 528 207 1181 512 10;
#X obj 1205 66 loadbang;
#X obj 47 406 r oscmess;
#X obj 1205 110 s oscmess;
#X msg 1205 88 connect localhost 9999;
#X text 52 2 violin 5 clarinet 4 cello 3 flute 2;
#X obj 1015 96 s reset;
#X obj 1015 68 bng 15 250 50 0 empty empty empty 17 7 0 10 -262144
-1 -1;
#X msg 1210 340 nextevent;
#X obj 36 309 r violin_osc;
#X msg 36 331 send /violin \$1;
#X obj 1208 241 s violin;
#X obj 700 69 bng 40 250 50 0 start empty empty 17 7 0 10 -204786 -1
-1;
#X msg 1208 213 start;
#X floatatom 42 125 5 0 0 0 - - -;
#X floatatom 198 125 5 0 0 0 - - -;
#X floatatom 365 126 5 0 0 0 - - -;
#X floatatom 516 125 5 0 0 0 - - -;
#X obj 1208 262 s clarinet;
#X obj 1208 283 s cello;
#X obj 1208 304 s flute;
#X obj 1208 184 r start;
#X obj 135 308 r cello_osc;
#X msg 135 330 send /cello \$1;
#X obj 236 308 r clarinet_osc;
#X msg 236 329 send /clarinet \$1;
#X obj 351 306 r flute_osc;
#X msg 351 328 send /flute \$1;
#X obj 42 103 scorefollow_voice violin;
#N canvas 1091 577 591 481 section_average 0;
#X obj 22 27 inlet;
#X obj 115 27 inlet;
#X obj 223 25 inlet;
#X obj 334 25 inlet;
#X obj 115 60 t b f;
#X obj 223 56 t b f;
#X obj 334 57 t b f;
#X obj 22 363 outlet;
#X obj 22 318 expr rint(($f1 + $f2 + $f3 + $f4) / 4);
#X connect 0 0 8 0;
#X connect 1 0 4 0;
#X connect 2 0 5 0;
#X connect 3 0 6 0;
#X connect 4 0 8 0;
#X connect 4 1 8 1;
#X connect 5 0 8 0;
#X connect 5 1 8 2;
#X connect 6 0 8 0;
#X connect 6 1 8 3;
#X connect 8 0 7 0;
#X restore 183 195 pd section_average;
#X obj 1208 146 r all_voices;
#X obj 787 92 + 1;
#X obj 791 103 s all_voices;
#X msg 791 75 gotocue \$1;
#X floatatom 152 128 5 0 0 0 - - -;
#X obj 1210 362 s all_voices;
#X obj 183 267 s all_voices;
#X msg 183 242 gotocue \$1;
#X obj 183 217 spigot;
#X obj 232 217 r cue_adjust;
#X obj 702 123 tgl 40 0 cue_adjust empty empty 17 7 0 10 -228856 -1
-1 0 1;
#X floatatom 301 124 5 0 0 0 - - -;
#X floatatom 480 125 5 0 0 0 - - -;
#X floatatom 651 126 5 0 0 0 - - -;
#X obj 198 103 scorefollow_voice clarinet;
#X obj 365 103 scorefollow_voice cello;
#X obj 516 103 scorefollow_voice flute;
#X obj 42 35 adc~ 2 9 4 8;
#X obj 609 373 route /cue;
#X obj 609 431 s cue;
#X obj 906 84 r cue;
#X obj 905 97 - 1;
#X obj 771 78 hradio 40 1 0 6 empty empty empty 0 -8 0 10 -262144 -1
-1 0;
#X obj 609 317 mrpeach/udpreceive 8000;
#X obj 609 345 mrpeach/unpackOSC;
#X obj 351 352 mrpeach/packOSC;
#X obj 236 353 mrpeach/packOSC;
#X obj 135 354 mrpeach/packOSC;
#X obj 36 355 mrpeach/packOSC;
#X obj 37 437 mrpeach/udpsend;
#X connect 0 0 3 0;
#X connect 1 0 58 0;
#X connect 3 0 2 0;
#X connect 6 0 5 0;
#X connect 7 0 34 0;
#X connect 8 0 9 0;
#X connect 9 0 57 0;
#X connect 12 0 10 0;
#X connect 12 0 17 0;
#X connect 12 0 18 0;
#X connect 12 0 19 0;
#X connect 20 0 12 0;
#X connect 21 0 22 0;
#X connect 22 0 56 0;
#X connect 23 0 24 0;
#X connect 24 0 55 0;
#X connect 25 0 26 0;
#X connect 26 0 54 0;
#X connect 27 0 13 0;
#X connect 27 1 28 0;
#X connect 27 1 33 0;
#X connect 28 0 37 0;
#X connect 29 0 10 0;
#X connect 29 0 17 0;
#X connect 29 0 18 0;
#X connect 29 0 19 0;
#X connect 30 0 32 0;
#X connect 32 0 31 0;
#X connect 36 0 35 0;
#X connect 37 0 36 0;
#X connect 38 0 37 1;
#X connect 43 0 14 0;
#X connect 43 1 28 1;
#X connect 43 1 40 0;
#X connect 44 0 15 0;
#X connect 44 1 28 2;
#X connect 44 1 41 0;
#X connect 45 0 16 0;
#X connect 45 1 28 3;
#X connect 45 1 42 0;
#X connect 46 0 27 0;
#X connect 46 1 43 0;
#X connect 46 2 44 0;
#X connect 46 3 45 0;
#X connect 47 0 48 0;
#X connect 49 0 50 0;
#X connect 50 0 51 0;
#X connect 51 0 30 0;
#X connect 52 0 53 0;
#X connect 53 0 47 0;
#X connect 54 0 58 0;
#X connect 55 0 58 0;
#X connect 56 0 58 0;
#X connect 57 0 58 0;
